<svg width="150" height="27" viewBox="0 0 150 27" fill="none" xmlns="http://www.w3.org/2000/svg">
<g clip-path="url(#clip0)">
<path d="M128.69 12.9394C128.527 12.0805 128.178 11.282 127.675 10.617V10.617C126.966 9.72897 126.037 9.10868 125.011 8.83892C123.494 8.47423 121.944 8.31674 120.395 8.36976C118.13 8.36976 116.67 8.67472 115.634 9.12511C115.138 9.3566 114.686 9.69599 114.303 10.1244V9.25178H111.367V26.7701H114.315V15.6464C114.315 12.7423 116.913 11.5976 119.507 11.5976H120.806C123.4 11.5976 126.026 12.7423 126.026 15.6464V26.7701H128.933V17.2181C128.981 15.7863 128.901 14.3527 128.694 12.9394" fill="#D2001A"/>
<path d="M79.1271 8.32235H82.0581C82.0432 6.89048 82.1298 5.45956 82.3171 4.04363C82.4375 3.31092 82.745 2.63518 83.2009 2.10133C83.7764 1.36691 84.5192 0.8293 85.3467 0.548416C86.7804 0.178481 88.2464 -0.00410237 89.7164 0.00419185H92.4705L89.8191 2.93642H88.6887C84.7876 2.93642 85.0589 5.78421 85.0589 8.30358H91.9156L89.145 11.522H84.989V26.7227H82.0252V11.522H79.0943L79.1271 8.32235Z" fill="#D2001A"/>
<path d="M79.1313 2.5616H76.1962V5.99114H79.1313V2.5616Z" fill="#D2001A"/>
<path d="M53.5544 17.5887C53.6015 19.3018 53.3887 21.0112 52.9255 22.6415C52.5144 23.9739 51.0386 26.9859 43.9559 26.9859C36.8731 26.9859 35.4138 23.9739 34.9863 22.6415C34.1369 19.3284 34.1369 15.8068 34.9863 12.4937C35.3974 11.1612 36.8731 8.15395 43.9559 8.15395C51.0386 8.15395 52.5144 11.18 52.9255 12.5124C53.3923 14.1499 53.6065 15.8675 53.5585 17.5887H53.5544ZM49.8589 13.5633C49.7311 13.1965 49.5318 12.8677 49.2761 12.6019C49.0204 12.3361 48.715 12.1402 48.3831 12.0292C47.6268 11.7477 46.2908 11.5882 43.9641 11.56C41.6333 11.5976 40.3015 11.7571 39.541 12.0292C39.2093 12.1408 38.9042 12.3369 38.6486 12.6027C38.393 12.8684 38.1935 13.1969 38.0652 13.5633C37.8474 14.1404 37.6048 15.5526 37.6048 17.5887C37.6048 19.6248 37.8474 21.0323 38.0652 21.6094C38.194 21.976 38.3936 22.3047 38.6491 22.5712C38.9046 22.8376 39.2095 23.0348 39.541 23.1482C40.3015 23.425 41.6333 23.5845 43.9641 23.6174C46.2908 23.5798 47.6268 23.4203 48.3831 23.1482C48.7149 23.0354 49.02 22.8384 49.2756 22.5719C49.5312 22.3054 49.7306 21.9763 49.8589 21.6094C50.216 20.3098 50.3731 18.9495 50.3234 17.5887C50.3234 15.5526 50.0767 14.1404 49.8589 13.5633Z" fill="white"/>
<path d="M109.213 17.5887C109.26 19.3025 109.045 21.0124 108.576 22.6415C108.165 23.9739 106.69 26.9859 99.6067 26.9859C92.524 26.9859 91.0647 23.9739 90.6372 22.6415C89.7877 19.3284 89.7877 15.8068 90.6372 12.4937C91.0482 11.1612 92.524 8.15395 99.6067 8.15395C106.69 8.15395 108.149 11.1612 108.576 12.4937C109.047 14.1303 109.262 15.8484 109.213 17.5699V17.5887ZM105.514 13.5446C105.385 13.178 105.184 12.8495 104.928 12.5838C104.672 12.3181 104.366 12.1221 104.034 12.0104C103.278 11.7289 101.942 11.5694 99.615 11.5413C97.2842 11.5788 95.9523 11.7383 95.196 12.0104C94.8636 12.1215 94.5576 12.3173 94.3012 12.583C94.0449 12.8488 93.8448 13.1776 93.7161 13.5446C93.4982 14.1216 93.2557 15.5338 93.2557 17.5699C93.2557 19.6061 93.4982 21.0136 93.7161 21.5906C93.8453 21.9577 94.0455 22.2868 94.3018 22.5532C94.558 22.8197 94.8637 23.0167 95.196 23.1295C95.9523 23.4063 97.2842 23.5658 99.615 23.5986C101.942 23.5611 103.278 23.4016 104.034 23.1295C104.366 23.0161 104.671 22.8189 104.928 22.5525C105.184 22.2861 105.384 21.9574 105.514 21.5906C106.128 18.9543 106.128 16.1808 105.514 13.5446" fill="#D2001A"/>
<path d="M32.0019 12.9065C31.8365 12.0458 31.483 11.2469 30.9742 10.5842V10.5842C30.259 9.69422 29.3223 9.07537 28.2899 8.81076C26.7719 8.44317 25.2206 8.28564 23.6695 8.34161C21.3839 8.34161 19.8301 8.55274 18.786 8.99844C17.9187 9.36104 17.1775 10.0342 16.6731 10.9173C16.0935 9.99918 15.275 9.31295 14.3341 8.9562C13.2488 8.53865 11.2346 8.33693 8.69006 8.33693C6.78269 8.33693 5.47137 8.49175 4.68212 8.80608C4.03618 9.10249 3.45008 9.54631 2.95972 10.1103V9.21425H0.0205536V26.7279H2.9515V15.6042C2.9515 12.7001 5.53713 11.5553 8.15155 11.5553H9.46287C12.0773 11.5553 14.6876 12.7001 14.6876 15.6042V26.7279H17.6144V15.6042C17.6144 12.7001 20.1713 11.5553 22.7857 11.5553H24.097C26.7073 11.5553 29.33 12.7001 29.33 15.6042V26.7279H32.2568V17.1899C32.3049 15.7581 32.225 14.3245 32.0184 12.9112" fill="white"/>
<path d="M148.471 18.8883H149.967C149.967 18.4801 150 18.0532 150 17.6075C150.05 15.8877 149.836 14.1713 149.367 12.5359C148.956 11.2035 147.48 8.19617 140.397 8.19617C133.315 8.19617 131.851 11.18 131.44 12.5124C130.594 15.8197 130.594 19.3342 131.44 22.6415C131.851 23.9739 133.327 26.9859 140.41 26.9859C147.492 26.9859 148.952 23.9739 149.379 22.6415C149.416 22.5242 149.453 22.4023 149.486 22.2803H145.947C145.652 22.6782 145.264 22.9726 144.829 23.1295C144.068 23.4063 142.736 23.5658 140.41 23.5986C138.079 23.5611 136.747 23.4016 135.991 23.1295C135.659 23.0161 135.353 22.8189 135.097 22.5525C134.841 22.2861 134.641 21.9574 134.511 21.5906C134.258 20.7097 134.12 19.7914 134.1 18.8648H148.487L148.471 18.8883ZM135.962 12.0292C136.718 11.7477 138.05 11.5882 140.381 11.56C142.708 11.5976 144.039 11.7571 144.8 12.0292C145.132 12.1402 145.437 12.3361 145.693 12.6019C145.949 12.8677 146.148 13.1965 146.276 13.5633C146.497 14.2553 146.635 14.978 146.687 15.7121H134.116C134.158 14.9794 134.286 14.2565 134.499 13.5633C134.628 13.1967 134.828 12.8683 135.084 12.6026C135.341 12.3369 135.646 12.1409 135.978 12.0292" fill="#D2001A"/>
<path d="M79.1313 8.32286H76.1962V26.7373H79.1313V8.32286Z" fill="white"/>
<path d="M73.479 12.5119C73.068 11.1795 71.5963 8.1722 64.5136 8.1722C61.8005 8.1722 59.9178 8.61321 58.5982 9.2325V0.00416565H55.6673V26.7884H58.5982V25.9251C59.9178 26.5444 61.8005 26.9854 64.5136 26.9854C71.5963 26.9854 73.0556 23.9828 73.479 22.6457C74.3285 19.3325 74.3285 15.811 73.479 12.4978V12.5119ZM70.4083 21.5948C70.2808 21.9623 70.0817 22.2919 69.826 22.5585C69.5703 22.8251 69.2648 23.0218 68.9326 23.1336C68.1762 23.4104 66.8402 23.5699 64.5136 23.6028C62.1828 23.5652 61.2661 23.4057 60.5056 23.1336C60.1738 23.0208 59.8687 22.8238 59.6132 22.5573C59.3576 22.2908 59.1582 21.9617 59.0299 21.5948C58.7658 20.6857 58.6204 19.7372 58.5982 18.7798V16.3918C58.6204 15.4344 58.7658 14.486 59.0299 13.5769C59.1582 13.2104 59.3576 12.882 59.6132 12.6162C59.8689 12.3505 60.174 12.1544 60.5056 12.0427C61.2661 11.7659 62.1828 11.6017 64.5136 11.5736C66.8402 11.6111 68.1762 11.7753 68.9326 12.0427C69.2645 12.1538 69.5699 12.3496 69.8256 12.6154C70.0813 12.8813 70.2806 13.2101 70.4083 13.5769C71.0277 16.2123 71.0277 18.9875 70.4083 21.6229" fill="white"/>
</g>
<defs>
<clipPath id="clip0">
<rect width="150" height="27" fill="white"/>
</clipPath>
</defs>
</svg>
